<svg width="28" height="28" viewBox="0 0 28 28" fill="none" xmlns="http://www.w3.org/2000/svg">
<path d="M20.12 23.5H7.88C6.98357 23.5 6.12385 23.1439 5.48998 22.51C4.85611 21.8761 4.5 21.0164 4.5 20.12V7.88C4.5 6.98357 4.85611 6.12385 5.48998 5.48998C6.12385 4.85611 6.98357 4.5 7.88 4.5H20.12C21.0164 4.5 21.8761 4.85611 22.51 5.48998C23.1439 6.12385 23.5 6.98357 23.5 7.88V20.12C23.5 21.0164 23.1439 21.8761 22.51 22.51C21.8761 23.1439 21.0164 23.5 20.12 23.5ZM7.88 5.5C7.24878 5.5 6.64342 5.75075 6.19709 6.19709C5.75075 6.64342 5.5 7.24878 5.5 7.88V20.12C5.5 20.7512 5.75075 21.3566 6.19709 21.8029C6.64342 22.2493 7.24878 22.5 7.88 22.5H20.12C20.7512 22.5 21.3566 22.2493 21.8029 21.8029C22.2493 21.3566 22.5 20.7512 22.5 20.12V7.88C22.5 7.24878 22.2493 6.64342 21.8029 6.19709C21.3566 5.75075 20.7512 5.5 20.12 5.5H7.88Z" fill="#B1AFAE"/>
<path d="M13.3198 19.46C13.014 19.4604 12.7201 19.3421 12.4998 19.13L9.3398 16.07C9.22884 15.961 9.14042 15.8312 9.07962 15.6881C9.01881 15.5449 8.98679 15.3912 8.9854 15.2356C8.98401 15.0801 9.01326 14.9258 9.0715 14.7816C9.12973 14.6373 9.21581 14.506 9.3248 14.395C9.4338 14.284 9.56359 14.1956 9.70675 14.1348C9.84992 14.074 10.0037 14.042 10.1592 14.0406C10.3147 14.0392 10.469 14.0685 10.6133 14.1267C10.7575 14.1849 10.8888 14.271 10.9998 14.38L12.9998 16.38L16.7998 9.17001C16.8645 9.0208 16.9594 8.88657 17.0784 8.77576C17.1974 8.66495 17.3381 8.57994 17.4916 8.52607C17.645 8.47221 17.808 8.45065 17.9701 8.46274C18.1323 8.47484 18.2903 8.52033 18.434 8.59636C18.5778 8.67239 18.7043 8.77732 18.8056 8.90457C18.9069 9.03181 18.9808 9.17862 19.0226 9.33578C19.0645 9.49293 19.0734 9.65705 19.0488 9.81782C19.0243 9.97859 18.9667 10.1325 18.8798 10.27L14.3598 18.83C14.2736 18.9914 14.151 19.1305 14.0017 19.2364C13.8525 19.3423 13.6806 19.412 13.4998 19.44L13.3198 19.46Z" fill="#F669BD"/>
</svg>
