<svg xmlns="http://www.w3.org/2000/svg" viewBox="0 0 122.33 82.73"><defs><style>.cls-1{fill:#ddf1fc;}.cls-2{fill:#f669bd;}.cls-3{fill:#fff;}.cls-4{fill:#72b844;}.cls-5{fill:#f4a01a;}.cls-6{fill:#51b8af;}.cls-7{fill:#fc7a38;}</style></defs><title>Asset 19</title><g id="Layer_2" data-name="Layer 2"><g id="SPECS"><path class="cls-1" d="M34.1,14.7C35.91-2.72,64.43-4.64,71.35,8.84c5.15-11,27.85-5.5,28.74,5.5,14.55-3.72,24.07,12.08,17,22.89,10.36,10.67,4.48,26.1-10.64,25.62-.56,12.45-18.27,15.18-24,8.08C75.81,84.53,51.92,88,42.79,72.53,34.28,80.69,15.2,77.92,15.7,60.26-4,58.63-5.06,31.66,12.05,27.65,7.23,14.48,24.81,4.36,34.1,14.7"/><path class="cls-2" d="M21,49.14a5.86,5.86,0,0,1-.82-2c-.16-1,.71-1.94,2.1-2.15a2.24,2.24,0,0,1,2.49,1.43c1.3,2.7,2.58,5.4,3.82,8.11h.06q.81-4.32,1.7-8.62a2.47,2.47,0,0,1,4.81-.52c1.2,2.68,2.37,5.36,3.5,8.06h.07c.63-2.91,1.3-5.82,2-8.73a2.25,2.25,0,0,1,2.13-1.93,2.15,2.15,0,0,1,2.53,2,6,6,0,0,1-.36,1.7q-1.7,5.51-3.22,11c-.37,1.33-1.07,2.35-2.53,2.48a2.59,2.59,0,0,1-2.78-1.83Q35,54.69,33.44,51.23h-.07c-.53,2.48-1,5-1.54,7.43A2.61,2.61,0,0,1,29.5,61c-1.46.19-2.36-.66-3-1.88q-2.64-5-5.45-10"/><path class="cls-2" d="M63.29,50.65c-.07,4.66-3.32,8.54-8.12,8.64S46.94,55.67,46.66,51a8.33,8.33,0,1,1,16.63-.37m-12,.16c.08,2.14,1.31,4.44,3.77,4.39s3.59-2.41,3.58-4.56-1.18-4.56-3.78-4.5-3.66,2.53-3.57,4.67"/><path class="cls-2" d="M65.31,44.44a2.27,2.27,0,0,1,2.51-2.18c1.26,0,2.31.51,2.26,1.93h.07a3.78,3.78,0,0,1,3.43-1.72A2.24,2.24,0,0,1,75.77,45c-.09,1.46-1.5,1.47-2.94,2s-2.89,1.09-3,2.86c-.08,2.29-.16,4.57-.25,6.86a2.27,2.27,0,1,1-4.53-.13Z"/><path class="cls-2" d="M77.91,38a2.45,2.45,0,1,1,4.88.36L81.2,57.42a2.28,2.28,0,1,1-4.53-.34Q77.3,47.54,77.91,38"/><path class="cls-2" d="M99.12,59.58a2.29,2.29,0,0,1-2.62,2.11,2.17,2.17,0,0,1-2-2.17A5,5,0,0,1,90.16,61c-4.46-.54-7-5-6.59-9.16s3.34-8.61,8.51-8A7.07,7.07,0,0,1,96.41,46l.84-6a2.45,2.45,0,1,1,4.84.72l-3,18.89M92.37,48c-2.45-.3-3.93,2-4.15,4.11s.68,4.6,3,4.89,3.89-2,4.19-4.15-.56-4.53-3.08-4.85"/><path class="cls-2" d="M85.7,18.53c-2.61-.11-5.46-.06-7.94-.06s-4.7,0-7.81.1-5.64,2.12-5.77,6.51a7.3,7.3,0,0,0,.95,4.07c-.47.65-1.17,1.64-1.32,1.88s.06.26.24.21,1.38-.54,2.12-.86A6,6,0,0,0,70,31.76c1.94.08,4.68,0,7.55,0s5.42.08,8.36,0c2.63-.1,5.31-2.56,5.31-6.41,0-4.46-2.85-6.7-5.5-6.82"/><path class="cls-3" d="M85.8,24a.81.81,0,0,1,.61-.73,1.63,1.63,0,0,1,.87.06c.3.13.36.4.38.85s.14,3.43,0,4a1.11,1.11,0,0,1-.42.8,1.48,1.48,0,0,1-1,.08c-.23-.08-.39-.34-.45-.74s-.09-4.08,0-4.33m.83-3.63a1,1,0,0,0-1,1.05,1,1,0,0,0,1.06,1,.94.94,0,0,0,1-1,1,1,0,0,0-1-1.07"/><path class="cls-3" d="M79.53,23.42c.21-.62,1.14-.56,1.49-.07a2.68,2.68,0,0,1,1.88-.47,1.94,1.94,0,0,1,1.87,1.88,34.38,34.38,0,0,1,.06,3.44c0,.42-.13.68-.37.79a1.61,1.61,0,0,1-.93.14c-.3-.06-.61-.14-.71-.8s.05-2.72-.12-3.16c-.25-.64-1.24-.35-1.32,0s0,2.62-.06,3.3a.62.62,0,0,1-.43.55,1.55,1.55,0,0,1-.8,0c-.26-.07-.47-.07-.57-.71a30.32,30.32,0,0,1,0-4.95"/><path class="cls-3" d="M76.74,24a.8.8,0,0,1,.61-.69,2,2,0,0,1,.87.05c.26.08.36.4.39.82s0,3.77,0,4.26a.62.62,0,0,1-.41.63,2.16,2.16,0,0,1-1,.05c-.2,0-.37-.15-.41-.58s-.11-4.29-.08-4.54m1-3.63a1,1,0,0,0-1,1.05,1,1,0,0,0,1.06,1,.94.94,0,0,0,1-1,1,1,0,0,0-1-1.07"/><path class="cls-3" d="M69.26,28.22c-.05.51-.17.69-.42.85a1.47,1.47,0,0,1-1.28,0c-.22-.21-.28-.35-.31-.83s0-1.76,0-2.15a23.15,23.15,0,0,1,.1-2.44,1,1,0,0,1,1-.79c.52,0,.65.17.76.43,0,0,.08,0,.12,0a2,2,0,0,1,1.35-.45,1.41,1.41,0,0,1,1.32.63c.08.06.12.06.19,0A2.2,2.2,0,0,1,74,22.73a1.7,1.7,0,0,1,1.75,1.75,32.53,32.53,0,0,1,.15,3.77.81.81,0,0,1-.5.78,1.67,1.67,0,0,1-.94,0,.69.69,0,0,1-.52-.71c0-.31-.09-2.24-.15-3a.57.57,0,0,0-1.12-.08c0,.32,0,2.61-.06,3s0,.56-.3.75a1.57,1.57,0,0,1-1.43,0,1.06,1.06,0,0,1-.34-.84c0-.44,0-2.53-.06-2.86a.56.56,0,0,0-1.11,0c0,.39-.07,2.62-.1,2.87"/><path class="cls-4" d="M62.38,25.24c0-1.64,0-4.8,0-5.83,0-.32-.22-.54-.67-.54s-2,0-2.43,0-2.26,0-2.48,0a.64.64,0,0,0-.72.55c-.07.43,0,4,0,5.45s0,5.18.09,6.08a.7.7,0,0,0,.62.65c.32,0,2,0,2.51,0s1.9,0,2.35,0,.8-.18.81-1,0-3.93,0-5.41M60,29c0,.07,0,.07-.06.08s-1.26.06-1.41.05-.06,0-.06-.06c0-.26-.07-1.93-.08-3.25,0-1.59-.06-3.09-.06-3.15s0-.13.09-.14l1.31-.07c.1,0,.13,0,.14.11S60,24.3,60,25.83s0,2.82,0,3.14"/><path class="cls-5" d="M48.63,19.5c0-.25.09-.48.59-.49.25,0,4.26-.08,4.39-.07s.35.12.36.34.07,1.87,0,2.16,0,.25-.15.26c-.37,0-2.49,0-2.64,0s-.1,0-.11.09,0,3,0,3.39,0,3.81,0,4,0,.18.11.17,1.5-.07,1.73-.06.11,0,.11-.16c0-.35,0-1.82,0-2.29,0-.07,0-.15-.07-.15s-.46,0-.64,0-.26,0-.28-.24,0-1.53,0-1.84.14-.29.3-.29,2,0,2.1,0,.35.07.36.24,0,3.24,0,3.51,0,2.61,0,2.92-.18.48-.38.49-2.1,0-2.53,0-2.23,0-2.54,0a.57.57,0,0,1-.59-.51c0-.18-.09-4-.1-5.61,0-2-.07-5.7,0-5.95"/><path class="cls-6" d="M47.67,31.55c0-.14-.42-5.52-.48-6.13-.08-.79-.58-5.72-.75-6.39-.07-.25-.2-.28-.5-.31H42.4c-.43,0-.53.12-.6.46-.19.94-.51,4.13-.65,5.55s-.53,6.39-.54,6.6,0,.16.19.17,2.09.05,2.25.05.19-.15.2-.26c0-.3,0-1.44,0-1.6s0-.11.14-.11,1.28,0,1.41,0,.13.1.13.18v1.78c0,.15.1.24.31.25s2.05,0,2.31,0,.1-.1.1-.25M44.9,27.1c0,.1,0,.23-.15.25a9,9,0,0,1-.91,0c-.11,0-.16,0-.18-.15-.06-.5,0-3.68,0-4,0-.1,0-.12.1-.14s.84,0,1,0,.12,0,.13.12c0,.69.06,3.39,0,3.9"/><path class="cls-7" d="M38.78,18.63a.91.91,0,0,1,.9.73c0,.35,0,2.59,0,2.76s-.07.26-.34.26-1.68,0-1.84,0-.29-.11-.29-.37,0-.52,0-.65a.37.37,0,0,0-.27-.39.69.69,0,0,0-.45,0,.45.45,0,0,0-.28.42,6.81,6.81,0,0,0,.07,1.27.85.85,0,0,0,.34.49c.29.24,2,1.44,2.31,1.71a2.79,2.79,0,0,1,.83,1.79c0,.34,0,1.12,0,1.89s0,1.56-.08,1.83a1.31,1.31,0,0,1-1.45,1.31c-.33,0-2.71,0-3.08,0-.72,0-1.14-.4-1.23-1.35a13.61,13.61,0,0,1-.06-2.15c.05-.22.09-.29.33-.3s1.71,0,2,0,.25.08.27.21,0,.56,0,.76a.5.5,0,0,0,.25.39,1,1,0,0,0,.47,0c.15,0,.22-.1.25-.32a3.78,3.78,0,0,0-.27-2.2,13.71,13.71,0,0,0-2.32-1.6,2.2,2.2,0,0,1-1-1.52,32.9,32.9,0,0,1,0-4.21,1,1,0,0,1,.9-.76,32.24,32.24,0,0,1,4.05,0"/></g></g></svg>